HIERARCHY
ROOT joint_Root
{
	OFFSET 0.0 0.0 0.0
	CHANNELS 6 Xposition Yposition Zposition Zrotation Xrotation Yrotation 
	JOINT Hips
	{
		OFFSET 4.5925 91.4895 -427.239
		CHANNELS 6 Xposition Yposition Zposition Zrotation Xrotation Yrotation 
		JOINT Spine
		{
			OFFSET 15.7357 0.0 0.0
			CHANNELS 6 Xposition Yposition Zposition Zrotation Xrotation Yrotation 
			JOINT Chest
			{
				OFFSET 8.98455 -0.406207 0.0
				CHANNELS 6 Xposition Yposition Zposition Zrotation Xrotation Yrotation 
				JOINT Neck
				{
					OFFSET 16.3773 0.0 0.0
					CHANNELS 6 Xposition Yposition Zposition Zrotation Xrotation Yrotation 
					JOINT Head
					{
						OFFSET 6.45672 0.0 0.0
						CHANNELS 6 Xposition Yposition Zposition Zrotation Xrotation Yrotation 
						End Site
						{
							OFFSET 0.0 0.0 0.0
						}
					}
				}
				JOINT Shoulder_L
				{
					OFFSET 12.9942 -0.242716 4.98039
					CHANNELS 6 Xposition Yposition Zposition Zrotation Xrotation Yrotation 
					JOINT UpperArm_L
					{
						OFFSET 5.34809 0.0 0.0
						CHANNELS 6 Xposition Yposition Zposition Zrotation Xrotation Yrotation 
						JOINT LowerArm_L
						{
							OFFSET 24.3286 1.87007e-05 0.0
							CHANNELS 6 Xposition Yposition Zposition Zrotation Xrotation Yrotation 
							JOINT Hand_L
							{
								OFFSET 22.2916 0.0 0.0
								CHANNELS 6 Xposition Yposition Zposition Zrotation Xrotation Yrotation 
								End Site
								{
									OFFSET 0.0 0.0 0.0
								}
							}
						}
					}
				}
				JOINT Shoulder_R
				{
					OFFSET 12.9945 -0.242716 -4.98039
					CHANNELS 6 Xposition Yposition Zposition Zrotation Xrotation Yrotation 
					JOINT UpperArm_R
					{
						OFFSET -5.34813 0.0 0.0
						CHANNELS 6 Xposition Yposition Zposition Zrotation Xrotation Yrotation 
						JOINT LowerArm_R
						{
							OFFSET -24.3289 0.000322201 0.0
							CHANNELS 6 Xposition Yposition Zposition Zrotation Xrotation Yrotation 
							JOINT Hand_R
							{
								OFFSET -22.2915 -0.000108084 0.0
								CHANNELS 6 Xposition Yposition Zposition Zrotation Xrotation Yrotation 
								End Site
								{
									OFFSET 0.0 0.0 0.0
								}
							}
						}
					}
				}
			}
		}
		JOINT UpperLeg_L
		{
			OFFSET -2.19248 -6.46944 0.0
			CHANNELS 6 Xposition Yposition Zposition Zrotation Xrotation Yrotation 
			JOINT LowerLeg_L
			{
				OFFSET 39.0811 0.0 -1.23785e-05
				CHANNELS 6 Xposition Yposition Zposition Zrotation Xrotation Yrotation 
				JOINT Foot_L
				{
					OFFSET 40.9854 0.0 -1.26872e-05
					CHANNELS 6 Xposition Yposition Zposition Zrotation Xrotation Yrotation 
					JOINT Toes_L
					{
						OFFSET 11.7543 0.0 0.0
						CHANNELS 6 Xposition Yposition Zposition Zrotation Xrotation Yrotation 
						End Site
						{
							OFFSET 0.0 0.0 0.0
						}
					}
				}
			}
		}
		JOINT UpperLeg_R
		{
			OFFSET -2.19251 6.46944 0.0
			CHANNELS 6 Xposition Yposition Zposition Zrotation Xrotation Yrotation 
			JOINT LowerLeg_R
			{
				OFFSET -39.0811 -0.00228153 -0.0401928
				CHANNELS 6 Xposition Yposition Zposition Zrotation Xrotation Yrotation 
				JOINT Foot_R
				{
					OFFSET -40.9854 0.0 0.0
					CHANNELS 6 Xposition Yposition Zposition Zrotation Xrotation Yrotation 
					JOINT Toes_R
					{
						OFFSET -11.7543 0.0 0.0
						CHANNELS 6 Xposition Yposition Zposition Zrotation Xrotation Yrotation 
						End Site
						{
							OFFSET 0.0 0.0 0.0
						}
					}
				}
			}
		}
	}
}
MOTION
Frames:	4
Frame Time:	0.0333333
0.000000 0.000000 0.000000 0.000000 0.000000 -0.000000 3.752590 90.101100 1.173830 89.687500 -6.332160 14.201100 15.735700 0.000005 -0.000001 97.103800 81.897700 -100.834000 8.984550 -0.406207 -0.000000 8.393400 1.973990 -7.598010 16.377300 -0.000001 -0.000001 26.490600 -0.509416 0.685089 6.456720 -0.000001 -0.000000 15.261400 -1.381600 -13.355700 12.994200 -0.242716 4.980390 -91.700400 5.410790 -72.524600 5.348090 -0.000007 -0.000001 -60.572700 32.699100 -12.126500 24.328600 0.000019 0.000005 8.336410 25.620800 -18.720100 22.291600 -0.000001 0.000005 11.121400 5.221990 2.161630 12.994500 -0.242716 -4.980390 91.287700 -4.232440 -73.060400 -5.348130 -0.000001 -0.000004 -45.111000 -49.758400 -79.802800 -24.328900 0.000322 -0.000009 1.895280 1.476990 -52.100700 -22.291500 -0.000108 -0.000004 27.547700 5.461320 -5.049350 -2.192480 -6.469440 -0.000000 -176.437000 -15.598600 4.938170 39.081100 -0.000007 -0.000012 -0.134001 0.207860 32.808800 40.985400 -0.000006 -0.000013 3.194040 3.148530 -73.662500 11.754300 -0.000000 0.000003 -0.000245 -0.002194 -16.659800 -2.192510 6.469440 -0.000001 169.987000 16.610400 -175.968000 -39.081100 -0.002282 -0.040193 -0.115022 0.182550 32.948900 -40.985400 0.000008 0.000006 2.061720 12.738300 -71.932100 -11.754300 -0.000006 -0.000006 -0.003353 -0.044529 -18.384200
0.000000 0.000000 0.000000 0.000000 0.000000 -0.000000 3.800430 90.099500 1.169090 89.680200 -6.386280 14.150200 15.735700 0.000005 -0.000001 97.231500 81.901500 -100.977000 8.984550 -0.406207 -0.000000 8.383030 2.008970 -7.631630 16.377300 -0.000001 -0.000001 26.361000 -0.361125 0.414847 6.456720 -0.000001 -0.000000 15.196300 -1.181180 -13.472000 12.994200 -0.242716 4.980390 -91.716600 5.412650 -72.374300 5.348090 -0.000007 -0.000001 -60.659700 32.532400 -11.880500 24.328600 0.000019 0.000005 8.305000 25.748500 -18.573100 22.291600 -0.000001 0.000005 11.074600 5.220460 2.200960 12.994500 -0.242716 -4.980390 91.230300 -4.079940 -73.203800 -5.348130 -0.000001 -0.000004 -45.511300 -50.438900 -77.682500 -24.328900 0.000322 -0.000009 1.694590 1.387310 -50.724200 -22.291500 -0.000108 -0.000004 27.707000 5.460130 -5.005610 -2.192480 -6.469440 -0.000000 -176.442000 -15.717400 4.890960 39.081100 -0.000007 -0.000012 -0.132874 0.206071 32.814000 40.985400 -0.000006 -0.000013 3.245160 3.197790 -73.674900 11.754300 -0.000000 0.000003 -0.000250 -0.002231 -16.661200 -2.192510 6.469440 -0.000001 170.012000 16.542700 -176.053000 -39.081100 -0.002282 -0.040193 -0.112798 0.179038 32.960500 -40.985400 0.000008 0.000006 2.073270 12.692800 -71.923400 -11.754300 -0.000006 -0.000006 -0.003303 -0.043979 -18.361800
0.000000 0.000000 0.000000 0.000000 0.000000 -0.000000 3.859580 90.098700 1.162600 89.710100 -6.378970 14.164800 15.735700 0.000005 -0.000001 97.088000 81.890800 -100.872000 8.984550 -0.406207 -0.000000 8.408710 1.970400 -7.705510 16.377300 -0.000001 -0.000001 26.279400 -0.233238 0.155841 6.456720 -0.000001 -0.000000 15.113800 -0.994061 -13.534800 12.994200 -0.242716 4.980390 -91.735100 5.439230 -72.277600 5.348090 -0.000007 -0.000001 -60.638500 32.392300 -11.647200 24.328600 0.000019 0.000005 8.286030 25.759900 -18.525900 22.291600 -0.000001 0.000005 11.056400 5.219310 2.230530 12.994500 -0.242716 -4.980390 91.162600 -3.892640 -73.356100 -5.348130 -0.000001 -0.000004 -45.599100 -51.110000 -75.227200 -24.328900 0.000322 -0.000009 1.506670 1.293360 -49.387300 -22.291500 -0.000108 -0.000004 27.862800 5.456870 -4.887010 -2.192480 -6.469440 -0.000000 -176.509000 -15.748200 4.902290 39.081100 -0.000007 -0.000012 -0.129890 0.201590 32.795100 40.985400 -0.000006 -0.000013 3.294230 3.203970 -73.666700 11.754300 -0.000000 0.000003 -0.000255 -0.002267 -16.662500 -2.192510 6.469440 -0.000001 169.939000 16.540700 -176.053000 -39.081100 -0.002282 -0.040193 -0.110926 0.176084 32.970400 -40.985400 0.000008 0.000006 2.065390 12.708800 -71.918100 -11.754300 -0.000006 -0.000006 -0.003403 -0.045079 -18.406600
0.000000 0.000000 0.000000 0.000000 0.000000 -0.000000 3.920010 90.095200 1.171700 89.712900 -6.412690 14.194800 15.735700 0.000005 -0.000001 96.908100 81.879200 -100.703000 8.984550 -0.406207 -0.000000 8.436460 1.921830 -7.725840 16.377300 -0.000001 -0.000001 26.160500 -0.111800 -0.084440 6.456720 -0.000001 -0.000000 15.125700 -0.836416 -13.674600 12.994200 -0.242716 4.980390 -91.759400 5.495090 -72.215200 5.348090 -0.000007 -0.000001 -60.578300 32.337000 -11.440500 24.328600 0.000019 0.000005 8.279340 25.697000 -18.551100 22.291600 -0.000001 0.000005 11.095800 5.217730 2.270630 12.994500 -0.242716 -4.980390 91.100600 -3.711620 -73.469700 -5.348130 -0.000001 -0.000004 -45.401700 -51.737600 -72.665700 -24.328900 0.000322 -0.000009 1.439760 1.305880 -47.820700 -22.291500 -0.000108 -0.000004 27.863000 5.449980 -4.639020 -2.192480 -6.469440 -0.000000 -176.540000 -15.764800 4.941390 39.081100 -0.000007 -0.000012 -0.131393 0.203947 32.792100 40.985400 -0.000006 -0.000013 3.326060 3.176380 -73.680100 11.754300 -0.000000 0.000003 -0.000269 -0.002378 -16.666400 -2.192510 6.469440 -0.000001 169.877000 16.506800 -176.024000 -39.081100 -0.002282 -0.040193 -0.113781 0.180553 32.960700 -40.985400 0.000008 0.000006 2.020960 12.775700 -71.898500 -11.754300 -0.000006 -0.000006 -0.003450 -0.045593 -18.427500
